<svg xmlns="http://www.w3.org/2000/svg" width="56" height="56" viewBox="0 0 56 56"><path d="M28.563.563a28,28,0,1,0,28,28A28,28,0,0,0,28.563.563Zm13.225,39.15a16.854,16.854,0,0,1-12.4,5.163,16.86,16.86,0,0,1-9.286-2.7,15.715,15.715,0,0,1-6.8-10.842,17.563,17.563,0,0,1-.225-2.9A15.9,15.9,0,0,1,29.3,12.25c7.56,0,11.512,4.213,11.677,4.392a1.355,1.355,0,0,1,.14,1.651l-2.527,3.913a1.356,1.356,0,0,1-2.059.259,11.486,11.486,0,0,0-6.986-2.7c-5.207,0-8.345,3.791-8.345,8.59,0,4.471,2.881,9,8.386,9a11.069,11.069,0,0,0,7.4-3.232,1.355,1.355,0,0,1,2.09.119l2.771,3.79a1.355,1.355,0,0,1-.062,1.678Z" transform="translate(-0.563 -0.563)" fill="#1565c0"/></svg>