<svg xmlns="http://www.w3.org/2000/svg" width="48.651" height="56" viewBox="0 0 48.651 56"><path d="M27.92.047C30.977,0,34.01.023,37.044,0a14.534,14.534,0,0,0,4.083,9.73c2.613,2.59,6.3,3.78,9.893,4.177v9.4a24.975,24.975,0,0,1-9.8-2.263,28.829,28.829,0,0,1-3.78-2.17c-.023,6.813.023,13.626-.047,20.416a17.822,17.822,0,0,1-3.15,9.193,17.384,17.384,0,0,1-13.79,7.49,17.014,17.014,0,0,1-9.52-2.4A17.6,17.6,0,0,1,2.417,40.25c-.047-1.167-.07-2.333-.023-3.477a17.566,17.566,0,0,1,20.37-15.586c.047,3.453-.093,6.907-.093,10.36a8.006,8.006,0,0,0-10.22,4.947,9.256,9.256,0,0,0-.327,3.757,7.941,7.941,0,0,0,8.167,6.7,7.839,7.839,0,0,0,6.463-3.757,5.384,5.384,0,0,0,.957-2.473c.233-4.177.14-8.33.163-12.507.023-9.4-.023-18.783.047-28.163Z" transform="translate(-2.369)" fill="#1565c0"/></svg>