<svg xmlns="http://www.w3.org/2000/svg" width="40" height="34.545" viewBox="0 0 40 34.545">
  <path id="smart_toy_FILL0_wght400_GRAD0_opsz48" d="M44.864,198.909a4.864,4.864,0,1,1,0-9.727v-5.591a2.8,2.8,0,0,1,2.727-2.727h7.545a4.864,4.864,0,1,1,9.727,0h7.545a2.8,2.8,0,0,1,2.727,2.727v5.591a4.864,4.864,0,1,1,0,9.727v8.909a2.8,2.8,0,0,1-2.727,2.727H47.591a2.8,2.8,0,0,1-2.727-2.727Zm8.92-4.545a1.729,1.729,0,0,0,1.285-.533,1.782,1.782,0,0,0,.523-1.3,1.729,1.729,0,0,0-.533-1.285,1.782,1.782,0,0,0-1.3-.523,1.729,1.729,0,0,0-1.285.533,1.782,1.782,0,0,0-.523,1.3,1.729,1.729,0,0,0,.533,1.285A1.782,1.782,0,0,0,53.783,194.364Zm12.455,0a1.729,1.729,0,0,0,1.285-.533,1.782,1.782,0,0,0,.523-1.3,1.729,1.729,0,0,0-.533-1.285,1.782,1.782,0,0,0-1.3-.523,1.729,1.729,0,0,0-1.285.533,1.782,1.782,0,0,0-.523,1.3,1.729,1.729,0,0,0,.533,1.285A1.782,1.782,0,0,0,66.238,194.364Zm-12.511,8.682H66.273a1.316,1.316,0,0,0,.972-.394,1.331,1.331,0,0,0,.392-.977,1.3,1.3,0,0,0-.392-.969,1.33,1.33,0,0,0-.972-.386H53.727a1.316,1.316,0,0,0-.972.394,1.331,1.331,0,0,0-.392.977,1.3,1.3,0,0,0,.392.969A1.329,1.329,0,0,0,53.727,203.045Zm-6.136,4.773H72.409V183.591H47.591Zm0,0v0Z" transform="translate(-40 -176)" fill="#0076d6"/>
</svg>
