<svg xmlns="http://www.w3.org/2000/svg" width="26.268" height="24" viewBox="0 0 26.268 24"><g transform="translate(0 0)"><path d="M21.743,3.03a4.747,4.747,0,0,1,1.121-1.777,4.392,4.392,0,0,1,6.908,1.026c1.058,1.925,2.179,3.808,3.269,5.712l5.459,9.5a4.373,4.373,0,1,1-7.649,4.242l-4.8-8.336a.959.959,0,0,0-.116-.169,1.721,1.721,0,0,1-.349-.518L22.05,6.585a4.38,4.38,0,0,1-.582-2.327,3.243,3.243,0,0,1,.275-1.227" transform="translate(-12.804 -0.008)" fill="#3c8bd9"/><path d="M10.82,7.371a6.084,6.084,0,0,0-.2,1.164,4.57,4.57,0,0,0,.635,2.486l3.48,6.019c.106.18.19.36.3.529l-1.915,3.29-2.676,4.612c-.042,0-.053-.021-.063-.053a.656.656,0,0,1,.042-.243,4.257,4.257,0,0,0-1.016-4.2A4.032,4.032,0,0,0,6.916,19.7a4.293,4.293,0,0,0-3.4.941c-.18.138-.3.339-.508.444a.07.07,0,0,1-.074-.053l1.513-2.634L10.746,7.488c.021-.042.053-.074.074-.116" transform="translate(-1.881 -4.349)" fill="#fabc04"/><path d="M1.461,38.609l.6-.54a4.373,4.373,0,0,1,6.993,2.655,4.65,4.65,0,0,1-.169,2.253,1.107,1.107,0,0,1-.042.18c-.1.169-.18.349-.286.518a4.253,4.253,0,0,1-4.147,2.211A4.342,4.342,0,0,1,.4,42.1a4.232,4.232,0,0,1,.582-2.814c.106-.19.233-.36.349-.55.053-.042.032-.127.127-.127" transform="translate(-0.361 -21.899)" fill="#34a852"/></g></svg>