<svg xmlns="http://www.w3.org/2000/svg" width="59.706" height="56.5" viewBox="0 0 59.706 56.5"><path d="M59.486,60.729l-8.643-8.5A11.5,11.5,0,0,1,47.8,53.751a10.675,10.675,0,0,1-3.33.531A10.644,10.644,0,0,1,33.7,43.585,10.645,10.645,0,0,1,44.468,32.817,10.7,10.7,0,0,1,55.236,43.585a9.828,9.828,0,0,1-.6,3.365,11.817,11.817,0,0,1-1.594,3.011l8.643,8.572a1.858,1.858,0,0,1,.46,1.133,1.244,1.244,0,0,1-.46,1.063,1.464,1.464,0,0,1-2.2,0ZM44.468,51.236a7.619,7.619,0,0,0,7.651-7.651,7.5,7.5,0,0,0-2.231-5.455,7.611,7.611,0,0,0-10.839,0,7.5,7.5,0,0,0-2.231,5.455,7.619,7.619,0,0,0,7.651,7.651ZM3.805,46.419a1.4,1.4,0,0,1-.673-.992,1.462,1.462,0,0,1,.248-1.133L13.794,27.646a1.812,1.812,0,0,1,1.488-.85,2.092,2.092,0,0,1,1.7.638l6.73,7.863,9.634-15.585a1.679,1.679,0,0,1,1.594-.921,1.873,1.873,0,0,1,1.665.85l5.1,7.651a12.529,12.529,0,0,0-1.558.39q-.779.248-1.558.46l-3.542-5.313L25.624,38.2a2.084,2.084,0,0,1-1.594.956,1.628,1.628,0,0,1-1.594-.673l-6.8-7.934L6,45.923a1.379,1.379,0,0,1-1.027.744,1.525,1.525,0,0,1-1.169-.248Zm45.551-18.7a8.908,8.908,0,0,0-1.665-.39q-.815-.106-1.665-.177L59.415,5.969a1.533,1.533,0,0,1,1.027-.708,1.561,1.561,0,0,1,1.842,1.275,1.667,1.667,0,0,1-.177,1.133Z" transform="translate(-2.857 -4.974)" fill="#1565c0" stroke="#1565c0" stroke-width="0.5"/></svg>