<svg xmlns="http://www.w3.org/2000/svg" width="63.773" height="56.5" viewBox="0 0 63.773 56.5"><path d="M50.327,31.691h2V28.055h5.455v-2H52.327V22.418h-2ZM18.873,28.055H46.145v-2H18.873Zm5.455,15.273h2V34.055h-2v3.636H18.873v2h5.455Zm6.182-3.636H57.782v-2H30.509ZM31.145,64.6a2.338,2.338,0,0,1-2.455-2.455V57.327H11.509a4.7,4.7,0,0,1-3.409-1.5,4.7,4.7,0,0,1-1.5-3.409V13.509a4.65,4.65,0,0,1,1.5-3.455A4.768,4.768,0,0,1,11.509,8.6H64.964a4.719,4.719,0,0,1,3.455,1.455,4.719,4.719,0,0,1,1.455,3.455V52.418a4.768,4.768,0,0,1-1.455,3.409,4.65,4.65,0,0,1-3.455,1.5H47.782v4.818A2.338,2.338,0,0,1,45.327,64.6ZM11.509,55.327H64.964a2.8,2.8,0,0,0,2.909-2.909V13.509A2.8,2.8,0,0,0,64.964,10.6H11.509A2.8,2.8,0,0,0,8.6,13.509V52.418a2.8,2.8,0,0,0,2.909,2.909Zm-2.909,0v0Z" transform="translate(-6.35 -8.35)" fill="#1565c0" stroke="#1565c0" stroke-width="0.5"/></svg>