<svg xmlns="http://www.w3.org/2000/svg" width="24" height="24" viewBox="0 0 24 24"><path d="M23.52,12.455A13.789,13.789,0,0,0,23.3,10H12v4.647h6.458a5.533,5.533,0,0,1-2.411,3.611V21.28h3.895a11.724,11.724,0,0,0,3.578-8.825Z" transform="translate(0 -0.182)" fill="#4285f4"/><path d="M12.893,23.809a11.453,11.453,0,0,0,7.942-2.9L16.94,17.885A7.215,7.215,0,0,1,6.173,14.1H2.18v3.1A11.989,11.989,0,0,0,12.893,23.809Z" transform="translate(-0.893 0.191)" fill="#34a853"/><path d="M6.28,14.728a7,7,0,0,1,0-4.56V7.07H2.287a11.878,11.878,0,0,0,0,10.756L5.4,15.4l.884-.676Z" transform="translate(-1 -0.448)" fill="#fbbc05"/><path d="M12.893,5.778a6.548,6.548,0,0,1,4.593,1.789l3.436-3.436A11.512,11.512,0,0,0,12.893,1,11.979,11.979,0,0,0,2.18,7.622l3.993,3.1a7.164,7.164,0,0,1,6.72-4.942Z" transform="translate(-0.893 -1)" fill="#ea4335"/><path d="M1,1H25V25H1Z" transform="translate(-1 -1)" fill="none"/></svg>