<svg xmlns="http://www.w3.org/2000/svg" width="56" height="55.86" viewBox="0 0 56 55.86"><path d="M46.829,49.066,45.64,47.878a2.11,2.11,0,0,0-3.006,0,2.027,2.027,0,0,0,0,2.936L45.71,53.89a1.523,1.523,0,0,0,2.237,0L55.079,46.9a2.126,2.126,0,1,0-3.006-3.006ZM45.85,21.381a2.1,2.1,0,1,0,0-4.195H16.487a2.1,2.1,0,1,0,0,4.195ZM48.856,61.86A13.189,13.189,0,0,1,35.713,48.787a12.783,12.783,0,0,1,3.845-9.333,13.04,13.04,0,0,1,18.562,0A12.725,12.725,0,0,1,62,48.787,13.25,13.25,0,0,1,48.856,61.86ZM10.195,6H52.142a4.177,4.177,0,0,1,4.195,4.195V33.056a19.749,19.749,0,0,0-3.6-1.189A16.887,16.887,0,0,0,49,31.448V29.071H16.487a2.1,2.1,0,1,0,0,4.195H41.236a17.241,17.241,0,0,0-4.509,3.251,17.7,17.7,0,0,0-3.251,4.439H16.487a2.1,2.1,0,1,0,0,4.195H32.007a16.126,16.126,0,0,0-.419,3.705,18.489,18.489,0,0,0,.454,4.055,14.984,14.984,0,0,0,1.433,3.845L31.8,58.295a1.159,1.159,0,0,1-.734.28.907.907,0,0,1-.664-.28l-2.657-2.657a1.021,1.021,0,0,0-1.538,0l-2.657,2.657a1.021,1.021,0,0,1-1.538,0l-2.657-2.657a1.021,1.021,0,0,0-1.538,0l-2.657,2.657a1.021,1.021,0,0,1-1.538,0l-2.657-2.657a1.021,1.021,0,0,0-1.538,0L6.769,58.295a4.368,4.368,0,0,1-.769.35V10.195A4.177,4.177,0,0,1,10.195,6Z" transform="translate(-6 -6)" fill="#1565c0"/></svg>