<svg xmlns="http://www.w3.org/2000/svg" width="56" height="56" viewBox="0 0 56 56"><path d="M13.509,64.6A4.7,4.7,0,0,1,10.1,63.1a4.7,4.7,0,0,1-1.5-3.409V13.509a4.65,4.65,0,0,1,1.5-3.455A4.768,4.768,0,0,1,13.509,8.6H59.691a4.719,4.719,0,0,1,3.455,1.455A4.719,4.719,0,0,1,64.6,13.509V59.691A4.768,4.768,0,0,1,63.145,63.1a4.65,4.65,0,0,1-3.455,1.5Zm0-2H59.691A2.8,2.8,0,0,0,62.6,59.691V17.873h-52V59.691A2.8,2.8,0,0,0,13.509,62.6Zm6-28.727a1.255,1.255,0,0,1-.818-.227.837.837,0,0,1-.273-.682.964.964,0,0,1,1.091-1.091H53.6a.818.818,0,0,1,.636.318,1.147,1.147,0,0,1,.273.773.837.837,0,0,1-.273.682.964.964,0,0,1-.636.227Zm0,14.545a1.255,1.255,0,0,1-.818-.227.837.837,0,0,1-.273-.682.964.964,0,0,1,1.091-1.091H39.055a.818.818,0,0,1,.636.318,1.147,1.147,0,0,1,.273.773.837.837,0,0,1-.273.682.964.964,0,0,1-.636.227Z" transform="translate(-8.6 -8.6)" fill="#1565c0"/></svg>