<svg xmlns="http://www.w3.org/2000/svg" width="56" height="56" viewBox="0 0 56 56"><path d="M52,2.25H3.988A4.017,4.017,0,0,0,0,6.288V54.213A4.017,4.017,0,0,0,3.988,58.25H52a4.028,4.028,0,0,0,4-4.037V6.288A4.028,4.028,0,0,0,52,2.25Zm-35.075,48h-8.3V23.525h8.313V50.25Zm-4.15-30.375a4.813,4.813,0,1,1,4.813-4.812,4.815,4.815,0,0,1-4.813,4.813ZM48.037,50.25h-8.3v-13c0-3.1-.062-7.087-4.312-7.087-4.325,0-4.988,3.375-4.988,6.863V50.25h-8.3V23.525H30.1v3.65h.113a8.742,8.742,0,0,1,7.862-4.312c8.4,0,9.962,5.538,9.962,12.738Z" transform="translate(0 -2.25)" fill="#1565c0"/></svg>