<svg xmlns="http://www.w3.org/2000/svg" width="56" height="53.068" viewBox="0 0 56 53.068"><path d="M31.02,37.11a1.077,1.077,0,0,0,1.96,0l2.94-6.79,6.79-2.94a1.077,1.077,0,0,0,0-1.96l-6.79-2.94-2.94-6.79a1.077,1.077,0,0,0-1.96,0l-2.94,6.79-6.79,2.94a1.077,1.077,0,0,0,0,1.96l6.79,2.94ZM4,54.96V8.2A4.069,4.069,0,0,1,5.26,5.3,3.978,3.978,0,0,1,8.2,4H55.8a4.017,4.017,0,0,1,2.905,1.3A4.017,4.017,0,0,1,60,8.2V44.6a4.443,4.443,0,0,1-4.2,4.2H15.2L7.57,56.43a1.943,1.943,0,0,1-2.275.455A1.917,1.917,0,0,1,4,54.96Z" transform="translate(-4 -4)" fill="#1565c0"/></svg>