<svg xmlns="http://www.w3.org/2000/svg" width="24" height="24" viewBox="0 0 24 24"><g transform="translate(0.266)"><circle cx="12" cy="12" r="12" transform="translate(-0.266)" fill="#333"/><path d="M2.536-4.156V0H1.374V-9.994H4.115a4.313,4.313,0,0,1,2.717.7,2.553,2.553,0,0,1,.878,2.119A2.654,2.654,0,0,1,5.7-4.491L8.415,0H7.041L4.621-4.156Zm0-1H4.129a2.751,2.751,0,0,0,1.8-.489,1.819,1.819,0,0,0,.574-1.466,1.669,1.669,0,0,0-.584-1.429,3.166,3.166,0,0,0-1.876-.437H2.536Z" transform="translate(6.359 16.994)" fill="#fff"/></g></svg>