<svg xmlns="http://www.w3.org/2000/svg" width="56" height="56" viewBox="0 0 56 56"><path d="M21.479,36.05,28.238,29.2a1.46,1.46,0,0,0,.395-.966,1.3,1.3,0,0,0-.395-1.053,1.14,1.14,0,0,0-.834-.263,1.924,1.924,0,0,0-1.009.263l-7.11,7.11a2.884,2.884,0,0,0-.614.834,2.507,2.507,0,0,0,0,1.843,2.04,2.04,0,0,0,.614.746l7.2,7.2a1.407,1.407,0,0,0,.922.395A1.7,1.7,0,0,0,28.5,45a2.01,2.01,0,0,0,.263-1.053,1.577,1.577,0,0,0-.263-.966Zm29.229,0-7.022,6.934a.909.909,0,0,0-.395.922,1.913,1.913,0,0,0,.395,1.1,1.3,1.3,0,0,0,.966.351,1.169,1.169,0,0,0,.966-.439l7.285-7.2a3.375,3.375,0,0,0,.571-.746,2.045,2.045,0,0,0,0-1.843,6.513,6.513,0,0,0-.483-.746L45.617,27.1a3.406,3.406,0,0,0-.439-.176,1.657,1.657,0,0,0-.527-.088,3.2,3.2,0,0,0-.527.044.786.786,0,0,0-.439.219,1.634,1.634,0,0,0-.351,1.053,1.3,1.3,0,0,0,.351.966Zm-37.831,28A4.8,4.8,0,0,1,8.05,59.222V12.878A4.8,4.8,0,0,1,12.878,8.05H59.222a4.8,4.8,0,0,1,4.828,4.828V59.222a4.8,4.8,0,0,1-4.828,4.828Zm0-2.633H59.222a2.434,2.434,0,0,0,2.194-2.194V12.878a2.1,2.1,0,0,0-.7-1.492,2.1,2.1,0,0,0-1.492-.7H12.878a2.1,2.1,0,0,0-1.492.7,2.1,2.1,0,0,0-.7,1.492V59.222a2.1,2.1,0,0,0,.7,1.492A2.1,2.1,0,0,0,12.878,61.417ZM10.683,10.683v0Z" transform="translate(-8.05 -8.05)" fill="#1565c0"/></svg>