<svg xmlns="http://www.w3.org/2000/svg" width="38.499" height="56" viewBox="0 0 38.499 56"><path d="M10.506,49.694a3.5,3.5,0,0,0,.586,1.935l1.869,2.81A3.5,3.5,0,0,0,15.875,56h6.749a3.5,3.5,0,0,0,2.914-1.562l1.869-2.81a3.5,3.5,0,0,0,.586-1.935L28,45.5H10.5l.005,4.194ZM0,19.25A19.142,19.142,0,0,0,4.764,31.913a31.431,31.431,0,0,1,5.71,10c0,.028.008.057.012.085H28.013c0-.028.008-.056.012-.085a31.431,31.431,0,0,1,5.71-10A19.246,19.246,0,1,0,0,19.25ZM19.25,10.5a8.76,8.76,0,0,0-8.75,8.75,1.75,1.75,0,0,1-3.5,0A12.263,12.263,0,0,1,19.25,7a1.75,1.75,0,0,1,0,3.5Z" transform="translate(0 0)" fill="#1565c0"/></svg>