<svg xmlns="http://www.w3.org/2000/svg" width="56" height="56" viewBox="0 0 56 56"><path d="M10.667,62A4.477,4.477,0,0,1,7.4,60.6,4.477,4.477,0,0,1,6,57.333V10.667A4.477,4.477,0,0,1,7.4,7.4,4.477,4.477,0,0,1,10.667,6H57.333A4.477,4.477,0,0,1,60.6,7.4,4.477,4.477,0,0,1,62,10.667V57.333A4.785,4.785,0,0,1,57.333,62ZM20,49.089a2.392,2.392,0,1,0-1.633-.7,2.239,2.239,0,0,0,1.633.7Zm0-12.756a2.392,2.392,0,1,0-1.633-.7,2.239,2.239,0,0,0,1.633.7Zm0-12.756a2.392,2.392,0,1,0-1.633-.7,2.239,2.239,0,0,0,1.633.7ZM32.6,49.089H46.911a2.334,2.334,0,1,0,0-4.667H32.6a2.334,2.334,0,1,0,0,4.667Zm0-12.756H46.911a2.334,2.334,0,1,0,0-4.667H32.6a2.334,2.334,0,1,0,0,4.667Zm0-12.756H46.911a2.334,2.334,0,1,0,0-4.667H32.6a2.334,2.334,0,1,0,0,4.667Z" transform="translate(-6 -6)" fill="#1565c0"/></svg>