<svg xmlns="http://www.w3.org/2000/svg" width="32" height="40" viewBox="0 0 32 40">
  <path id="description_FILL0_wght400_GRAD0_opsz48" d="M169.45,207.5h13.1a1.447,1.447,0,0,0,1.069-.434,1.464,1.464,0,0,0,.431-1.075,1.435,1.435,0,0,0-.431-1.066,1.462,1.462,0,0,0-1.069-.425h-13.1a1.447,1.447,0,0,0-1.069.434,1.464,1.464,0,0,0-.431,1.075,1.435,1.435,0,0,0,.431,1.066A1.462,1.462,0,0,0,169.45,207.5Zm0-8.5h13.1a1.447,1.447,0,0,0,1.069-.434,1.464,1.464,0,0,0,.431-1.075,1.435,1.435,0,0,0-.431-1.066A1.462,1.462,0,0,0,182.55,196h-13.1a1.447,1.447,0,0,0-1.069.434,1.464,1.464,0,0,0-.431,1.075,1.435,1.435,0,0,0,.431,1.066A1.462,1.462,0,0,0,169.45,199ZM163,216a3.076,3.076,0,0,1-3-3V179a3.076,3.076,0,0,1,3-3h16.8a2.9,2.9,0,0,1,1.186.25,3.154,3.154,0,0,1,.964.65l9.15,9.15a3.154,3.154,0,0,1,.65.964A2.9,2.9,0,0,1,192,188.2V213a3.076,3.076,0,0,1-3,3Zm16.55-29.2V179H163v34h26V188.3h-7.95a1.473,1.473,0,0,1-1.5-1.5ZM163,179v0Z" transform="translate(-160 -176)" fill="#0076d6"/>
</svg>
