<svg xmlns="http://www.w3.org/2000/svg" width="67.831" height="67.831" viewBox="0 0 67.831 67.831"><path d="M3.213,20.116a23.418,23.418,0,0,1,1.462-7.74l.01-.027a14.463,14.463,0,0,1,3.4-5.221l.021-.021.021-.021a14.435,14.435,0,0,1,5.221-3.4l.034-.013a23.275,23.275,0,0,1,7.734-1.462m-17.9,17.9C3.043,23.888,3,25.057,3,34.837s.041,10.948.213,14.721m0-29.442v.951M4.688,57.326a14.437,14.437,0,0,0,3.4,5.221l.021.021.021.021a14.461,14.461,0,0,0,5.221,3.4l.029.011a23.346,23.346,0,0,0,7.736,1.461M4.688,57.326l-.013-.034a23.274,23.274,0,0,1-1.462-7.734m1.475,7.768-.044-.234M3.213,49.558l.058.3m-.058-.3V48.6m1.431,8.488-1.373-7.23m1.373,7.23a23.027,23.027,0,0,1-1.373-7.23m1.373,7.23.061.16a14.4,14.4,0,0,0,3.431,5.285,14.4,14.4,0,0,0,5.284,3.43,23.112,23.112,0,0,0,7.7,1.45c3.878.177,5.077.212,14.722.212s10.845-.036,14.723-.212a23.168,23.168,0,0,0,7.692-1.449,15.141,15.141,0,0,0,8.716-8.715,23.1,23.1,0,0,0,1.45-7.7c.177-3.878.213-5.079.213-14.722s-.036-10.844-.213-14.723A23.12,23.12,0,0,0,66.959,12.4a14.366,14.366,0,0,0-3.424-5.263,14.383,14.383,0,0,0-5.257-3.419A23.066,23.066,0,0,0,50.56,2.256l-.955-.043M3.271,49.863q-.008-.15-.015-.3c-.015-.336-.03-.652-.043-.955m17.9-46.391C24.889,2.041,26.057,2,35.837,2s10.948.043,14.72.213m-29.441,0h.954m28.487,0h-.951m.951,0A23.423,23.423,0,0,1,58.3,3.675l.027.01a14.464,14.464,0,0,1,5.221,3.4l.02.021.021.02a14.454,14.454,0,0,1,3.4,5.222l.012.033a23.269,23.269,0,0,1,1.462,7.734M22.07,2.213H49.605m-27.536,0c3.195-.14,4.96-.17,13.767-.17s10.573.03,13.768.17m-27.536,0-.955.043A23.159,23.159,0,0,0,13.422,3.7a14.391,14.391,0,0,0-5.3,3.448,14.378,14.378,0,0,0-3.4,5.242,23.072,23.072,0,0,0-1.46,7.72c-.015.335-.029.65-.043.952m65.248,28.49A23.338,23.338,0,0,1,67,57.295l-.011.029a14.462,14.462,0,0,1-3.4,5.221l-.021.021-.02.021a14.437,14.437,0,0,1-5.221,3.4L58.292,66a23.278,23.278,0,0,1-7.734,1.462M3.213,48.6c-.14-3.195-.17-4.961-.17-13.767s.03-10.573.17-13.769m0,27.537V21.068M30,48.937a15.26,15.26,0,1,0-4.951-3.308A15.262,15.262,0,0,0,30,48.937ZM25.012,24.012a15.309,15.309,0,1,1-4.484,10.826A15.31,15.31,0,0,1,25.012,24.012Zm34.756-8.048a4.382,4.382,0,1,1-1.283-3.1A4.383,4.383,0,0,1,59.767,15.963Z" transform="translate(-1.9 -0.9)" fill="none" stroke="#1565c1" stroke-linejoin="round" stroke-width="2.2"/></svg>