<svg xmlns="http://www.w3.org/2000/svg" width="59" height="59" viewBox="0 0 59 59"><path d="M9.571,50.928h49v7h-56v-56h7Zm8.75-3.5a5.25,5.25,0,1,1,0-10.5c.155,0,.307.008.459.021l5.643-9.405a5.25,5.25,0,1,1,8.8,0l5.643,9.405q.229-.02.459-.021c.117,0,.232.005.347.013l9.316-16.3a5.25,5.25,0,1,1,4.336,2.291c-.117,0-.232-.005-.347-.013l-9.316,16.3a5.25,5.25,0,1,1-8.734.093l-5.643-9.405c-.151.013-.3.021-.459.021s-.307-.008-.459-.021l-5.643,9.405a5.249,5.249,0,0,1-4.4,8.116Z" transform="translate(-1.071 -0.428)" fill="#1565c0" stroke="#fff" stroke-width="3"/></svg>