<svg xmlns="http://www.w3.org/2000/svg" width="76.543" height="56" viewBox="0 0 76.543 56"><path d="M54.91,47.553a1.774,1.774,0,0,0,.938.328,1.361,1.361,0,0,0,1.032-2.3l-8.442-8.442a24,24,0,0,0,1.5-2.955,8.72,8.72,0,0,0,.563-3.33,10.065,10.065,0,0,0-3.1-7.457,10.3,10.3,0,0,0-7.5-3.049A10.1,10.1,0,0,0,32.4,23.4a10.224,10.224,0,0,0-3,7.457,10.383,10.383,0,0,0,3,7.5,10.023,10.023,0,0,0,7.5,3.1,8.511,8.511,0,0,0,3.518-.657q1.454-.657,3.236-1.688ZM39.9,38.548a7.686,7.686,0,0,1-7.692-7.692A7.686,7.686,0,0,1,39.9,23.164a7.369,7.369,0,0,1,5.487,2.251,7.492,7.492,0,0,1,2.2,5.441A7.686,7.686,0,0,1,39.9,38.548ZM13.355,57.59a4.95,4.95,0,0,1-3.611-1.548A4.95,4.95,0,0,1,8.2,52.43V14.159A4.9,4.9,0,0,1,9.744,10.5,5.025,5.025,0,0,1,13.355,9H70.387A5.025,5.025,0,0,1,74,10.5a4.9,4.9,0,0,1,1.548,3.658V52.43a5.29,5.29,0,0,1-5.159,5.159Zm0-2.814H70.387a2.249,2.249,0,0,0,2.345-2.345V14.159a2.249,2.249,0,0,0-2.345-2.345H13.355a2.249,2.249,0,0,0-2.345,2.345V52.43a2.249,2.249,0,0,0,2.345,2.345ZM5.007,65a1.35,1.35,0,0,1-.985-.422,1.35,1.35,0,0,1-.422-.985,1.31,1.31,0,0,1,.422-1.032,1.436,1.436,0,0,1,.985-.375H78.736a1.443,1.443,0,0,1,1.407,1.407,1.31,1.31,0,0,1-.422,1.032,1.436,1.436,0,0,1-.985.375Zm6-53.186v0Z" transform="translate(-3.6 -9)" fill="#1565c0"/></svg>