<svg xmlns="http://www.w3.org/2000/svg" width="32" height="40" viewBox="0 0 32 40">
  <path id="apk_document_FILL0_wght400_GRAD0_opsz48" d="M166,210h20a9.761,9.761,0,0,0-1.5-4.5,9.622,9.622,0,0,0-3.4-3.25l1.9-3.4a.682.682,0,0,0,.05-.45.457.457,0,0,0-.3-.35.622.622,0,0,0-.425-.05.455.455,0,0,0-.325.25l-1.95,3.5a13.162,13.162,0,0,0-2-.625,9.451,9.451,0,0,0-4.1,0,13.162,13.162,0,0,0-2,.625l-1.95-3.5a.34.34,0,0,0-.325-.25,1.28,1.28,0,0,0-.475.1l-.2.75,1.9,3.4a9.622,9.622,0,0,0-3.4,3.25A9.761,9.761,0,0,0,166,210Zm5.5-3a1.025,1.025,0,1,1,.7-.3A.959.959,0,0,1,171.5,207Zm9,0a1.025,1.025,0,1,1,.7-.3A.959.959,0,0,1,180.5,207ZM163,216a3.076,3.076,0,0,1-3-3V179a3.076,3.076,0,0,1,3-3h16.8a2.9,2.9,0,0,1,1.186.25,3.154,3.154,0,0,1,.964.65l9.15,9.15a3.154,3.154,0,0,1,.65.964A2.9,2.9,0,0,1,192,188.2V213a3.076,3.076,0,0,1-3,3Zm16.55-29.2V179H163v34h26V188.3h-7.95a1.473,1.473,0,0,1-1.5-1.5ZM163,179v0Z" transform="translate(-160 -176)" fill="#0076d6"/>
</svg>
