<svg xmlns="http://www.w3.org/2000/svg" width="40" height="39.883" viewBox="0 0 40 39.883">
  <path id="layers_FILL0_wght400_GRAD0_opsz48" d="M158.992,269.883a3.249,3.249,0,0,1-1.128-.2,4.1,4.1,0,0,1-1.034-.561L139.7,255.806a1.564,1.564,0,0,1-.674-1.377,1.723,1.723,0,0,1,.738-1.38,1.775,1.775,0,0,1,1.062-.352,1.7,1.7,0,0,1,1.045.352L159,266.364l17.126-13.314a1.786,1.786,0,0,1,2.126,0,1.7,1.7,0,0,1,.726,1.378,1.591,1.591,0,0,1-.682,1.381L161.17,269.12a4.159,4.159,0,0,1-1.045.561A3.3,3.3,0,0,1,158.992,269.883Zm0-8.915a3.249,3.249,0,0,1-1.128-.2,4.1,4.1,0,0,1-1.034-.561l-17.185-13.314a1.672,1.672,0,0,1-.5-.658,1.992,1.992,0,0,1,0-1.5,1.672,1.672,0,0,1,.5-.658l17.185-13.314a4.16,4.16,0,0,1,1.045-.561,3.3,3.3,0,0,1,1.134-.2,3.249,3.249,0,0,1,1.128.2,4.1,4.1,0,0,1,1.034.561l17.185,13.314a1.671,1.671,0,0,1,.5.658,1.991,1.991,0,0,1,0,1.5,1.672,1.672,0,0,1-.5.658L161.17,260.205a4.16,4.16,0,0,1-1.045.561A3.3,3.3,0,0,1,158.992,260.968Zm.008-3.519,15.367-11.965L159,233.519l-15.367,11.965ZM159,245.484Z" transform="translate(-139 -230)" fill="#0076d6"/>
</svg>
