<svg xmlns="http://www.w3.org/2000/svg" width="56" height="56" viewBox="0 0 56 56"><path d="M10.979,61.7a5.072,5.072,0,0,1-3.71-1.568A5.072,5.072,0,0,1,5.7,56.421V10.979a5.072,5.072,0,0,1,1.568-3.71A5.072,5.072,0,0,1,10.979,5.7H56.421a5.072,5.072,0,0,1,3.71,1.568,5.072,5.072,0,0,1,1.568,3.71V56.421A5.356,5.356,0,0,1,56.421,61.7Zm-.23-5.049h45.9V16.869h-45.9Zm9.945-23.716a2.3,2.3,0,1,1,0-4.59H45.94a2.3,2.3,0,1,1,0,4.59Zm0,12.24a2.3,2.3,0,1,1,0-4.59H33.7a2.3,2.3,0,1,1,0,4.59Z" transform="translate(-5.7 -5.7)" fill="#1565c0"/></svg>