<svg xmlns="http://www.w3.org/2000/svg" width="72.61" height="50.505" viewBox="0 0 72.61 50.505"><g transform="translate(0.643 -163.153)"><path d="M35.855,164.775h0c.222,0,22.277.017,27.605,1.428a7.34,7.34,0,0,1,5.213,5.151c1.426,5.261,1.444,16.536,1.444,16.649s-.018,11.388-1.445,16.65a7.34,7.34,0,0,1-5.213,5.151c-5.327,1.41-27.382,1.427-27.6,1.427S13.578,211.214,8.25,209.8a7.34,7.34,0,0,1-5.213-5.151C1.611,199.39,1.594,188.116,1.594,188s.018-11.388,1.445-16.65A7.34,7.34,0,0,1,8.251,166.2c5.327-1.41,27.382-1.427,27.6-1.427m0-1.575s-22.424,0-28.016,1.481a8.929,8.929,0,0,0-6.34,6.265C0,176.472,0,188,0,188s0,11.53,1.5,17.056a8.929,8.929,0,0,0,6.34,6.265C13.43,212.8,35.855,212.8,35.855,212.8s22.424,0,28.016-1.481a8.929,8.929,0,0,0,6.34-6.265c1.5-5.526,1.5-17.056,1.5-17.056s0-11.53-1.5-17.056a8.929,8.929,0,0,0-6.34-6.265C58.279,163.2,35.855,163.2,35.855,163.2Z" transform="translate(-0.194 0.403)" fill="#1565c0" stroke="#1565c0" stroke-width="0.9"/><path d="M436.8,383.572l13.909,8.031L436.8,399.633V383.572m-1.6-2.772v21.6l18.71-10.8L435.2,380.8Z" transform="translate(-406.394 -203.197)" fill="#1565c0" stroke="#1565c0" stroke-width="0.9"/></g></svg>