<svg xmlns="http://www.w3.org/2000/svg" width="65.438" height="53.596" viewBox="0 0 65.438 53.596"><path d="M65.238,10.085a25.978,25.978,0,0,1-7.45,2.041,13.01,13.01,0,0,0,5.7-7.18,25.905,25.905,0,0,1-8.238,3.147,12.981,12.981,0,0,0-22.442,8.884,13.251,13.251,0,0,0,.334,2.952A36.843,36.843,0,0,1,6.4,6.373,13,13,0,0,0,10.419,23.7a12.942,12.942,0,0,1-5.877-1.624v.167A12.981,12.981,0,0,0,14.951,34.962a13.172,13.172,0,0,1-5.86.223,12.982,12.982,0,0,0,12.121,9.007A26.036,26.036,0,0,1,5.1,49.748,26.512,26.512,0,0,1,2,49.567,36.693,36.693,0,0,0,21.886,55.4C45.754,55.4,58.8,35.627,58.8,18.482c0-.557-.014-1.12-.039-1.677a26.377,26.377,0,0,0,6.47-6.712Z" transform="translate(-0.9 -2.9)" fill="none" stroke="#1565c1" stroke-linejoin="round" stroke-width="2.2"/></svg>