<svg xmlns="http://www.w3.org/2000/svg" width="40" height="40" viewBox="0 0 40 40"><g transform="translate(0 0)"><path d="M19.494,40a19.494,19.494,0,1,1,12.3-34.617l1.074-1.074.511-2.719a1.949,1.949,0,0,1,3.832.719L37.1,2.9l.593-.111a1.949,1.949,0,0,1,.719,3.832l-2.884.54-.968.968A19.495,19.495,0,0,1,19.494,40Zm0-35.089a15.6,15.6,0,1,0,15.6,15.6,15.434,15.434,0,0,0-3.305-9.6L29,13.69a11.691,11.691,0,1,1-2.769-2.746l2.788-2.788A15.449,15.449,0,0,0,19.494,4.911Zm0,7.8A7.794,7.794,0,1,0,26.187,16.5l-2.94,2.94a3.949,3.949,0,0,1,.146,1.063,3.891,3.891,0,1,1-2.942-3.781l2.963-2.962A7.807,7.807,0,0,0,19.494,12.71Z" transform="translate(0 0)" fill="#2d8fe2"/></g></svg>