<svg xmlns="http://www.w3.org/2000/svg" width="59.689" height="68.178" viewBox="0 0 59.689 68.178"><path d="M48.6,12.34A15.669,15.669,0,0,1,44.725,2h-3.03m6.9,10.34a15.745,15.745,0,0,0,8.586,5.086,15.5,15.5,0,0,0,3.306.352V29.114a26.959,26.959,0,0,1-15.765-5.07V47.1A20.862,20.862,0,1,1,23.357,26.25M48.6,12.34l-.176-.116M16.148,52.644a9.431,9.431,0,0,1-1.806-5.561A9.47,9.47,0,0,1,26.679,38V26.418a21.171,21.171,0,0,0-2.816-.2c-.168,0-1.525.09-1.693.09M41.678,2h-8.3l-.015,45.451A9.512,9.512,0,0,1,16.132,52.66" transform="translate(-1.9 -0.9)" fill="none" stroke="#1565c1" stroke-linejoin="round" stroke-width="2.2"/></svg>