<svg xmlns="http://www.w3.org/2000/svg" width="30.909" height="40" viewBox="0 0 30.909 40">
  <path id="schema_FILL0_wght400_GRAD0_opsz48" d="M162,176a1.991,1.991,0,0,1-2-2v-6a1.992,1.992,0,0,1,2-2h2.545v-5H162a1.992,1.992,0,0,1-2-2v-6a1.992,1.992,0,0,1,2-2h2.545v-5H162a1.992,1.992,0,0,1-2-2v-6a1.992,1.992,0,0,1,2-2h7.818a1.992,1.992,0,0,1,2,2v6a1.992,1.992,0,0,1-2,2h-2.545v5h2.545a1.992,1.992,0,0,1,2,2v1.636h7.273V153a1.992,1.992,0,0,1,2-2h7.818a1.992,1.992,0,0,1,2,2v6a1.992,1.992,0,0,1-2,2h-7.818a1.992,1.992,0,0,1-2-2v-1.636h-7.273V159a1.992,1.992,0,0,1-2,2h-2.545v5h2.545a1.992,1.992,0,0,1,2,2v6a1.991,1.991,0,0,1-2,2Zm.727-2.727h6.364v-4.545h-6.364Zm0-15h6.364v-4.545h-6.364Zm19.091,0h6.364v-4.545h-6.364Zm-19.091-15h6.364v-4.545h-6.364ZM165.909,141ZM185,156ZM165.909,156ZM165.909,171Z" transform="translate(-160 -136)" fill="#0076d6"/>
</svg>
