<svg xmlns="http://www.w3.org/2000/svg" width="42.352" height="40" viewBox="0 0 42.352 40"><path d="M38.948,17.561a4.754,4.754,0,0,0-3.383,1.419A22.942,22.942,0,0,0,23.327,15.2L25.8,4.064l7.873,1.767a3.5,3.5,0,0,0,3.5,3.5,3.544,3.544,0,0,0,0-7.088,3.594,3.594,0,0,0-3.151,1.964L25.326,2.279a.832.832,0,0,0-.982.634L21.631,15.2A23.229,23.229,0,0,0,9.464,19.016,4.707,4.707,0,1,0,3.992,26.5a9.992,9.992,0,0,0-.232,2.2c0,7.48,8.427,13.542,18.773,13.542,10.391,0,18.817-6.061,18.817-13.542a8.516,8.516,0,0,0-.277-2.241A4.7,4.7,0,0,0,38.948,17.561ZM11.2,26.97a3.522,3.522,0,1,1,3.544,3.5,3.53,3.53,0,0,1-3.544-3.5Zm19.13,8.346c-3.249,3.249-12.417,3.249-15.666,0a.832.832,0,0,1,0-1.223.858.858,0,0,1,1.178,0c2.482,2.544,10.712,2.589,13.3,0a.858.858,0,0,1,1.178,0A.825.825,0,0,1,30.325,35.316Zm-.071-4.838a3.522,3.522,0,1,1,3.544-3.5A3.5,3.5,0,0,1,30.254,30.478Z" transform="translate(-1.319 -2.243)" fill="#1565c0"/></svg>