<svg xmlns="http://www.w3.org/2000/svg" width="56" height="53.778" viewBox="0 0 56 53.778"><path d="M3.5,32.5a3.358,3.358,0,0,1-2.45-1.05A3.358,3.358,0,0,1,0,29V13.488a3.407,3.407,0,0,1,.292-1.371A3.64,3.64,0,0,1,1.05,10.98l9.392-9.392A2.165,2.165,0,0,1,11.7,1a2.5,2.5,0,0,1,1.429.175,1.919,1.919,0,0,1,.962.992,2.222,2.222,0,0,1,.2,1.342L12.483,11.5H24.5a3.572,3.572,0,0,1,3.237,1.925,4.074,4.074,0,0,1,.321,3.85L22.517,30.346A3.46,3.46,0,0,1,19.308,32.5Zm39.375,22.05a1.909,1.909,0,0,1-.962-1.021,2.334,2.334,0,0,1-.2-1.371l1.808-7.992H31.5a3.572,3.572,0,0,1-3.238-1.925,4.074,4.074,0,0,1-.321-3.85L33.483,25.33a3.46,3.46,0,0,1,3.208-2.158H52.5a3.589,3.589,0,0,1,3.5,3.5V42.188a3.407,3.407,0,0,1-.292,1.371A3.64,3.64,0,0,1,54.95,44.7l-9.392,9.392A2.318,2.318,0,0,1,44.3,54.7a2.346,2.346,0,0,1-1.429-.146Z" transform="translate(0 -0.971)" fill="#1565c0"/></svg>