<svg xmlns="http://www.w3.org/2000/svg" xmlns:xlink="http://www.w3.org/1999/xlink" width="37" height="37" viewBox="0 0 37 37">
  <defs>
    <clipPath id="clip-path">
      <circle id="Ellipse_786" data-name="Ellipse 786" cx="12.5" cy="12.5" r="12.5" transform="translate(61.121 843.23)" fill="#fff"/>
    </clipPath>
  </defs>
  <g id="Group_6662" data-name="Group 6662" transform="translate(-836 -881)">
    <g id="Group_6660" data-name="Group 6660" transform="translate(775 38)">
      <g id="Group_6661" data-name="Group 6661">
        <circle id="Ellipse_786-2" data-name="Ellipse 786" cx="18.5" cy="18.5" r="18.5" transform="translate(61 843)" fill="#fff"/>
      </g>
    </g>
    <g id="Group_6659" data-name="Group 6659" transform="translate(769 32)">
      <g id="Mask_Group_26" data-name="Mask Group 26" transform="translate(11.879 11.77)" clip-path="url(#clip-path)">
        <g id="icon-google-logo" transform="translate(61.003 843)">
          <path id="Path_3380" data-name="Path 3380" d="M30.551,17.993a14.558,14.558,0,0,0-.231-2.582l-11.825,0V20.3h6.758a5.816,5.816,0,0,1-2.523,3.8v3.176h4.076A12.35,12.35,0,0,0,30.551,17.993Z" transform="translate(-5.938 -5.093)" fill="#4285f4"/>
          <path id="Path_3381" data-name="Path 3381" d="M14.571,31.937a11.955,11.955,0,0,0,8.311-3.048l-4.076-3.178A7.538,7.538,0,0,1,7.539,21.733H3.36v3.258a12.541,12.541,0,0,0,11.211,6.946Z" transform="translate(-2.013 -6.712)" fill="#34a853"/>
          <path id="Path_3382" data-name="Path 3382" d="M7.067,18.946a7.387,7.387,0,0,1,0-4.793V10.9H2.888a12.532,12.532,0,0,0,0,11.3l3.258-2.55.925-.71Z" transform="translate(-1.541 -3.936)" fill="#fbbc05"/>
          <path id="Path_3383" data-name="Path 3383" d="M14.571,6.563a6.836,6.836,0,0,1,4.806,1.88l3.6-3.611a12.019,12.019,0,0,0-8.4-3.291A12.53,12.53,0,0,0,3.361,8.5l4.178,3.259a7.5,7.5,0,0,1,7.032-5.194Z" transform="translate(-2.013 -1.54)" fill="#ea4335"/>
          <path id="Path_3384" data-name="Path 3384" d="M1.541,1.541H26.657V26.766H1.541Z" transform="translate(-1.541 -1.54)" fill="none"/>
        </g>
      </g>
    </g>
  </g>
</svg>
