<svg xmlns="http://www.w3.org/2000/svg" width="44.966" height="56" viewBox="0 0 44.966 56"><path d="M21.217,47.562H39.148a2.138,2.138,0,1,0,0-4.276H21.217a2.119,2.119,0,0,0-2.138,2.138,2.035,2.035,0,0,0,.621,1.552,2.127,2.127,0,0,0,1.517.586Zm0-11.724H39.148a2.138,2.138,0,1,0,0-4.276H21.217A2.119,2.119,0,0,0,19.079,33.7a2.035,2.035,0,0,0,.621,1.552,2.127,2.127,0,0,0,1.517.586ZM12.39,59.7a4.5,4.5,0,0,1-3.276-1.414A4.5,4.5,0,0,1,7.7,55.01V8.39a4.46,4.46,0,0,1,1.414-3.31A4.55,4.55,0,0,1,12.39,3.7H35.355a4.9,4.9,0,0,1,3.379,1.379L51.286,17.631a4.9,4.9,0,0,1,1.379,3.379v34a4.55,4.55,0,0,1-1.379,3.276,4.46,4.46,0,0,1-3.31,1.414ZM34.941,18.872a2.245,2.245,0,0,0,2.345,2.345h10.69L34.941,8.39Z" transform="translate(-7.7 -3.7)" fill="#1565c0"/></svg>